<?xml version="1.0" encoding="UTF-8"?>
<!DOCTYPE svg PUBLIC "-//W3C//DTD SVG 1.1//EN" "http://www.w3.org/Graphics/SVG/1.1/DTD/svg11.dtd">
<!-- Creator: CorelDRAW X7 -->
<svg xmlns="http://www.w3.org/2000/svg" xml:space="preserve" width="94.8247mm" height="79.8584mm" version="1.1" style="shape-rendering:geometricPrecision; text-rendering:geometricPrecision; image-rendering:optimizeQuality; fill-rule:evenodd; clip-rule:evenodd" viewBox="0 0 8313 7001" xmlns:xlink="http://www.w3.org/1999/xlink">
 <defs>
  <style type="text/css">
   <![CDATA[
    .fil1 {fill:#009D6D}
    .fil0 {fill:#6F7879}
   ]]>
  </style>
 </defs>
 <g id="Ebene_x0020_1">
  <metadata id="CorelCorpID_0Corel-Layer"/>
  <g id="_2923715910784">
   <path class="fil0" d="M42 6036l0 -905 124 0 0 905 -124 0zm340 0l0 -905 140 0 428 657c10,15 18,28 25,41 7,12 13,24 17,36l0 -734 122 0 0 905 -138 0 -438 -667c-7,-10 -13,-21 -18,-32 -6,-11 -11,-22 -16,-35l0 734 -122 0zm1137 0l0 -795 -295 0 0 -110 715 0 0 110 -296 0 0 795 -124 0zm532 0l0 -905 648 0 0 112 -521 0 0 271 481 0 0 105 -481 0 0 304 531 0 0 113 -658 0zm1485 -121c-37,49 -81,85 -132,110 -51,24 -109,36 -174,36 -123,0 -222,-44 -299,-131 -76,-88 -114,-202 -114,-345 0,-147 40,-264 119,-349 79,-86 186,-129 321,-129 103,0 188,27 253,79 66,52 106,126 119,219l-120 0c-11,-61 -40,-109 -83,-142 -44,-33 -101,-50 -169,-50 -99,0 -176,32 -231,96 -54,64 -81,155 -81,272 0,115 27,205 81,271 53,65 128,97 222,97 86,0 154,-26 205,-78 51,-52 76,-113 76,-201l0 -12 -284 0 0 -111 399 0 0 489 -81 0 -27 -121zm422 -678l0 307 233 0c76,0 130,-12 162,-37 31,-24 47,-65 47,-123 0,-54 -15,-91 -45,-114 -29,-22 -84,-33 -164,-33l-233 0zm-125 -106l379 0c57,0 99,2 126,7 27,5 51,13 72,25 39,21 68,50 88,87 20,37 29,81 29,132 0,48 -10,90 -31,125 -21,34 -52,61 -94,81 36,10 61,27 76,50 15,23 24,63 28,118l10 150c3,31 6,55 13,71 6,16 16,27 29,34l0 25 -143 0c-11,-19 -19,-59 -24,-121 0,-2 0,-3 0,-4l-7 -118c-4,-60 -17,-100 -39,-118 -22,-18 -77,-27 -164,-27l-221 0 0 388 -127 0 0 -905zm1813 905l0 -795 -295 0 0 -110 715 0 0 110 -296 0 0 795 -124 0zm552 0l0 -905 127 0 0 905 -127 0zm425 -452c0,116 27,207 81,272 53,65 128,98 223,98 94,0 168,-33 221,-98 54,-65 80,-156 80,-272 0,-116 -26,-207 -80,-272 -53,-65 -127,-98 -221,-98 -95,0 -170,33 -223,98 -54,65 -81,156 -81,272zm-127 0c0,-149 38,-266 114,-350 76,-84 182,-127 317,-127 134,0 239,42 315,127 76,83 114,200 114,350 0,150 -38,267 -114,351 -76,84 -181,126 -315,126 -135,0 -241,-42 -317,-126 -76,-84 -114,-201 -114,-351zm1026 452l0 -905 135 0 424 657c9,15 18,28 25,41 7,12 12,24 16,36l0 -734 118 0 0 905 -134 0 -433 -667c-7,-10 -13,-21 -18,-32 -6,-11 -11,-22 -16,-35l0 734 -117 0zm-2564 -905l0 0 0 0zm114 0l22 0 343 905 -134 0 -96 -270 -362 0 -97 270 0 0 134 -376 1 0 0 0 288 0 -145 -399 0 0 0 0 -1 -1 47 -129z"/>
   <path class="fil1" d="M7891 6396l115 0 98 305 96 -305 113 0 -145 414 -26 75c-10,25 -19,44 -27,57 -9,14 -19,24 -30,32 -11,9 -25,15 -41,20 -17,4 -35,7 -56,7 -21,0 -41,-3 -61,-7l-10 -90c17,4 32,6 46,6 25,0 44,-8 56,-23 12,-16 22,-36 28,-60l-156 -431zm-345 206c0,45 9,79 25,100 17,21 38,32 63,32 26,0 49,-11 67,-33 18,-21 27,-54 27,-96 0,-45 -8,-78 -26,-100 -17,-21 -39,-32 -66,-32 -26,0 -48,11 -65,32 -16,21 -25,53 -25,97zm-97 252l124 16c2,15 7,26 14,31 11,8 27,12 49,12 28,0 50,-4 64,-13 9,-6 17,-15 21,-29 4,-9 5,-27 5,-52l0 -63c-32,47 -73,70 -122,70 -56,0 -99,-25 -131,-73 -25,-39 -38,-87 -38,-145 0,-72 16,-127 50,-165 33,-38 74,-57 123,-57 51,0 92,23 125,70l0 -60 102 0 0 386c0,51 -4,88 -12,114 -8,25 -19,44 -34,59 -14,14 -33,25 -57,33 -24,8 -55,13 -92,13 -69,0 -119,-13 -148,-38 -29,-25 -43,-57 -43,-95 0,-4 0,-8 0,-14zm-194 -28l-108 0 0 -430 101 0 0 61c17,-29 32,-48 46,-57 14,-10 29,-14 47,-14 25,0 49,7 71,21l-33 99c-18,-12 -35,-18 -51,-18 -15,0 -28,4 -39,13 -10,9 -19,25 -25,48 -6,23 -9,71 -9,144l0 133zm-300 -252c-1,-33 -9,-58 -24,-75 -15,-18 -34,-26 -56,-26 -24,0 -44,9 -59,27 -16,18 -23,43 -23,74l162 0zm-6 115l108 19c-14,42 -36,73 -66,95 -30,22 -67,33 -112,33 -72,0 -124,-25 -159,-74 -27,-39 -40,-88 -40,-148 0,-71 18,-127 53,-168 36,-40 81,-60 135,-60 61,0 109,21 144,63 36,43 52,107 51,195l-272 0c1,33 10,60 26,78 17,19 38,29 63,29 17,0 31,-5 43,-15 11,-10 20,-25 26,-47zm-347 137l-109 0 0 -220c0,-46 -2,-76 -7,-90 -5,-14 -12,-24 -23,-32 -10,-7 -23,-11 -37,-11 -19,0 -36,5 -51,16 -15,11 -25,25 -31,43 -5,18 -8,51 -8,99l0 195 -108 0 0 -430 100 0 0 63c36,-49 81,-73 136,-73 23,0 46,4 65,13 20,9 35,21 45,35 10,14 18,30 21,48 5,18 7,43 7,76l0 268zm-570 -252c-1,-33 -9,-58 -24,-75 -15,-18 -34,-26 -56,-26 -24,0 -44,9 -59,27 -16,18 -23,43 -23,74l162 0zm-6 115l108 19c-14,42 -36,73 -66,95 -30,22 -67,33 -112,33 -72,0 -124,-25 -159,-74 -27,-39 -40,-88 -40,-148 0,-71 18,-127 53,-168 36,-40 81,-60 135,-60 61,0 109,21 144,63 36,43 52,107 51,195l-272 0c1,33 10,60 26,78 17,19 38,29 63,29 17,0 31,-5 43,-15 11,-10 20,-25 26,-47zm-865 -135c-25,13 -43,29 -56,48 -12,18 -18,37 -18,57 0,25 8,45 23,60 15,16 36,23 61,23 17,0 34,-3 49,-10 16,-7 33,-19 52,-35l-111 -143zm43 -124l29 -23c22,-18 33,-35 33,-52 0,-15 -6,-28 -16,-38 -10,-10 -25,-15 -42,-15 -17,0 -31,4 -41,13 -10,9 -15,20 -15,32 0,14 9,31 25,51l27 32zm295 323l-65 88c-33,-16 -63,-39 -93,-68 -23,22 -47,38 -73,48 -26,10 -56,15 -92,15 -70,0 -123,-20 -159,-62 -28,-32 -41,-69 -41,-111 0,-38 10,-72 32,-103 22,-30 54,-57 97,-79 -19,-24 -34,-47 -44,-69 -9,-21 -14,-42 -14,-62 0,-35 13,-66 41,-91 27,-25 66,-37 117,-37 49,0 87,13 115,39 27,26 41,58 41,96 0,24 -7,47 -20,68 -14,22 -42,46 -83,74l79 109c9,-17 17,-40 24,-68l98 24c-10,36 -19,63 -26,80 -7,17 -15,31 -23,42 12,12 28,25 47,39 19,14 33,24 42,28zm-796 -357l0 90 -75 0 0 174c0,35 1,55 3,61 1,6 4,11 9,15 5,3 11,5 19,5 10,0 24,-3 43,-11l10 89c-26,11 -54,17 -86,17 -20,0 -37,-4 -53,-11 -16,-7 -27,-16 -35,-26 -7,-11 -12,-26 -15,-45 -2,-13 -3,-40 -3,-80l0 -188 -50 0 0 -90 50 0 0 -86 108 -66 0 152 75 0zm-298 430l-109 0 0 -220c0,-46 -2,-76 -7,-90 -5,-14 -12,-24 -23,-32 -10,-7 -23,-11 -37,-11 -19,0 -36,5 -51,16 -15,11 -25,25 -31,43 -5,18 -8,51 -8,99l0 195 -108 0 0 -430 100 0 0 63c36,-49 81,-73 136,-73 24,0 46,4 65,13 20,9 35,21 45,35 10,14 18,30 21,48 5,18 7,43 7,76l0 268zm-570 -252c-1,-33 -9,-58 -24,-75 -15,-18 -34,-26 -56,-26 -24,0 -44,9 -59,27 -16,18 -23,43 -23,74l162 0zm-6 115l108 19c-14,42 -36,73 -66,95 -30,22 -67,33 -112,33 -72,0 -124,-25 -159,-74 -27,-39 -40,-88 -40,-148 0,-71 18,-127 53,-168 36,-40 81,-60 135,-60 61,0 109,21 144,63 36,43 52,107 51,195l-272 0c1,33 10,60 26,78 17,19 38,29 63,29 17,0 31,-5 43,-15 11,-10 20,-25 26,-47zm-949 -293l100 0 0 58c36,-45 79,-68 128,-68 26,0 49,5 68,17 20,11 36,28 48,51 18,-23 37,-40 58,-51 21,-12 43,-17 67,-17 30,0 56,6 77,19 20,13 36,32 46,57 8,18 11,48 11,89l0 275 -108 0 0 -246c0,-43 -4,-70 -11,-83 -10,-16 -26,-24 -47,-24 -15,0 -29,5 -43,15 -13,9 -22,23 -28,42 -6,19 -9,49 -9,89l0 207 -109 0 0 -236c0,-42 -2,-69 -6,-81 -3,-12 -10,-21 -18,-27 -8,-6 -19,-9 -33,-9 -16,0 -31,5 -45,14 -13,10 -23,23 -29,41 -5,18 -8,47 -8,89l0 209 -109 0 0 -430zm-102 430l-108 0 0 -220c0,-46 -3,-76 -7,-90 -5,-14 -12,-24 -23,-32 -10,-7 -23,-11 -37,-11 -19,0 -36,5 -51,16 -15,11 -25,25 -31,43 -5,18 -8,51 -8,99l0 195 -109 0 0 -430 101 0 0 63c36,-49 81,-73 135,-73 24,0 46,4 66,13 20,9 35,21 45,35 10,14 17,30 21,48 4,18 6,43 6,76l0 268zm-770 -215c0,42 10,75 29,98 19,22 43,34 72,34 28,0 52,-12 71,-34 19,-23 29,-56 29,-99 0,-42 -10,-75 -29,-97 -19,-23 -43,-34 -71,-34 -29,0 -53,11 -72,34 -19,22 -29,55 -29,98zm-111 -6c0,-38 9,-75 27,-110 17,-36 43,-63 75,-81 33,-19 69,-28 109,-28 62,0 113,21 153,63 39,43 59,96 59,161 0,65 -20,119 -60,161 -40,43 -90,65 -151,65 -38,0 -73,-9 -107,-27 -35,-18 -61,-44 -78,-79 -18,-34 -27,-76 -27,-125zm-179 221l-108 0 0 -430 100 0 0 61c18,-29 33,-48 47,-57 14,-10 29,-14 47,-14 25,0 48,7 71,21l-33 99c-18,-12 -35,-18 -51,-18 -15,0 -28,4 -39,13 -10,9 -19,25 -25,48 -6,23 -9,71 -9,144l0 133zm-323 0l0 -430 108 0 0 430 -108 0zm0 -489l0 -105 108 0 0 105 -108 0zm-328 489l-165 -430 114 0 77 219 23 74c6,-19 9,-31 11,-37 4,-13 7,-25 11,-37l79 -219 111 0 -163 430 -98 0zm-222 0l-109 0 0 -220c0,-46 -2,-76 -7,-90 -4,-14 -12,-24 -22,-32 -11,-7 -23,-11 -38,-11 -19,0 -36,5 -51,16 -15,11 -25,25 -30,43 -6,18 -9,51 -9,99l0 195 -108 0 0 -430 101 0 0 63c35,-49 80,-73 135,-73 24,0 46,4 65,13 20,9 35,21 45,35 11,14 18,30 22,48 4,18 6,43 6,76l0 268zm-570 -252c0,-33 -8,-58 -24,-75 -15,-18 -34,-26 -56,-26 -24,0 -44,9 -59,27 -15,18 -23,43 -23,74l162 0zm-6 115l108 19c-14,42 -35,73 -66,95 -29,22 -67,33 -112,33 -71,0 -124,-25 -158,-74 -27,-39 -41,-88 -41,-148 0,-71 18,-127 53,-168 36,-40 81,-60 135,-60 61,0 109,21 145,63 35,43 52,107 50,195l-272 0c1,33 10,60 26,78 17,19 38,29 63,29 17,0 31,-5 43,-15 12,-10 20,-25 26,-47zm6688 -6689c-2304,0 -4609,0 -6913,0 0,138 0,276 0,414 2251,0 4502,0 6753,0l160 -414zm1308 414c0,-138 0,-276 0,-414 -395,0 -790,0 -1185,0l-160 414c448,0 896,0 1345,0zm-1500 83c-2240,0 -4481,0 -6721,0 0,111 0,222 0,334 2197,0 4395,0 6592,0l129 -334zm1500 334c0,-112 0,-223 0,-334 -459,0 -918,0 -1377,0l-129 334c502,0 1004,0 1506,0zm-1661 82c-2187,0 -4373,0 -6560,0 0,96 0,191 0,289 2149,0 4299,0 6448,0l112 -289zm1661 289c0,-98 0,-193 0,-289 -513,0 -1026,0 -1538,0l-112 289c550,0 1100,0 1650,0zm-1808 89c-2137,0 -4275,0 -6413,0 0,83 0,167 0,252 2105,0 4211,0 6316,0l97 -252zm1808 252c0,-85 0,-169 0,-252 -562,0 -1123,0 -1685,0l-97 252c594,0 1188,0 1782,0zm-1948 111c-2091,0 -4182,0 -6273,0 0,74 0,147 0,223 2062,0 4125,0 6187,0l86 -223zm1948 223c0,-76 0,-149 0,-223 -609,0 -1217,0 -1825,0l-87 223c638,0 1275,0 1912,0zm-2080 118c-2047,0 -4094,0 -6141,0 0,65 0,129 0,194 2022,0 4044,0 6066,0l75 -194zm2080 194c0,-65 0,-129 0,-194 -653,0 -1305,0 -1957,0l-75 194c677,0 1354,0 2032,0zm-2215 156c-2002,0 -4004,0 -6006,0 0,53 0,107 0,162 1981,0 3962,0 5943,0l63 -162zm2215 162c0,-55 0,-109 0,-162 -698,0 -1395,0 -2092,0l-63 162c718,0 1436,0 2155,0zm-2347 178c-1958,0 -3916,0 -5874,0 0,45 0,89 0,134 1941,0 3882,0 5822,0l52 -134zm2347 134c0,-45 0,-89 0,-134 -742,0 -1483,0 -2224,0l-52 134c759,0 1517,0 2276,0zm-2476 200c-1915,0 -3830,0 -5745,0 0,40 0,80 0,121 1899,0 3799,0 5698,0l47 -121zm2476 121c0,-41 0,-81 0,-121 -785,0 -1569,0 -2354,0l-46 121c800,0 1600,0 2400,0zm-2609 222c-1871,0 -3741,0 -5612,0 0,34 0,67 0,103 1857,0 3715,0 5572,0l40 -103zm2609 103c0,-36 0,-69 0,-103 -829,0 -1658,0 -2486,0l-40 103c842,0 1684,0 2526,0zm-2738 231c-1828,0 -3655,0 -5483,0 0,29 0,58 0,89 1816,0 3632,0 5448,0l35 -89zm2738 89c0,-31 0,-60 0,-89 -872,0 -1744,0 -2616,0l-34 89c883,0 1767,0 2650,0zm-2873 259c-1782,0 -3565,0 -5348,0 0,26 0,53 0,82 1772,0 3544,0 5316,0l32 -82zm2873 82c0,-29 0,-56 0,-82 -917,0 -1833,0 -2750,0l-32 82c927,0 1855,0 2782,0zm-3025 312c-1732,0 -3464,0 -5196,0 0,26 0,53 0,82 1721,0 3443,0 5164,0l32 -82zm3025 82c0,-29 0,-56 0,-82 -968,0 -1935,0 -2903,0l-31 82c978,0 1956,0 2934,0zm-3189 341c-1677,0 -3355,0 -5032,0 0,24 0,49 0,73 1668,0 3336,0 5003,0l29 -73zm3189 73c0,-24 0,-49 0,-73 -1022,0 -2044,0 -3066,0l-29 73c1032,0 2063,0 3095,0zm-3645 1102l338 -905 114 0 -324 905 -128 0z"/>
  </g>
 </g>
</svg>