<?xml version="1.0" encoding="UTF-8" standalone="no"?>
<svg
   xmlns:dc="http://purl.org/dc/elements/1.1/"
   xmlns:cc="http://creativecommons.org/ns#"
   xmlns:rdf="http://www.w3.org/1999/02/22-rdf-syntax-ns#"
   xmlns:svg="http://www.w3.org/2000/svg"
   xmlns="http://www.w3.org/2000/svg"
   id="svg7184"
   version="1.1"
   viewBox="0 0 5.8208222 5.8208642"
   height="5.8208642mm"
   width="5.8208222mm">
  <defs
     id="defs7178" />
  <metadata
     id="metadata7181">
    <rdf:RDF>
      <cc:Work
         rdf:about="">
        <dc:format>image/svg+xml</dc:format>
        <dc:type
           rdf:resource="http://purl.org/dc/dcmitype/StillImage" />
        <dc:title></dc:title>
      </cc:Work>
    </rdf:RDF>
  </metadata>
  <g
     transform="translate(20.297316,-58.232426)"
     id="layer1">
    <path
       id="path837"
       d="m -14.74124,62.458852 v 0.796608 c 5.29e-4,0.149542 -0.06198,0.292417 -0.172387,0.393488 -0.11041,0.101097 -0.258405,0.151051 -0.40763,0.13761 -0.818721,-0.08879 -1.605161,-0.368009 -2.296128,-0.815208 -0.642853,-0.407696 -1.187881,-0.951627 -1.596379,-1.593215 -0.449652,-0.692732 -0.72948,-1.481428 -0.816814,-2.302192 -0.01344,-0.148485 0.03626,-0.295752 0.136959,-0.405845 0.100705,-0.110119 0.243136,-0.172905 0.392506,-0.173064 h 0.79819 c 0.267092,-0.0026 0.494745,0.192802 0.532128,0.456751 0.03369,0.254926 0.09617,0.505248 0.186242,0.746151 0.0731,0.194072 0.02635,0.412856 -0.119726,0.560282 l -0.337902,0.337238 c 0.378756,0.664792 0.93028,1.215204 1.596382,1.593215 l 0.337899,-0.337238 c 0.147717,-0.145786 0.366935,-0.192432 0.561393,-0.119486 0.241393,0.08991 0.492199,0.152268 0.747638,0.18587 0.267544,0.03768 0.464331,0.269478 0.457629,0.539035 z"
       style="fill:none;stroke:#464646;stroke-width:0.52916664;stroke-linecap:round;stroke-linejoin:round" />
  </g>
</svg>
