<?xml version="1.0" encoding="UTF-8" standalone="no"?>
<svg
   xmlns:dc="http://purl.org/dc/elements/1.1/"
   xmlns:cc="http://creativecommons.org/ns#"
   xmlns:rdf="http://www.w3.org/1999/02/22-rdf-syntax-ns#"
   xmlns:svg="http://www.w3.org/2000/svg"
   xmlns="http://www.w3.org/2000/svg"
   id="svg4793"
   version="1.1"
   viewBox="0 0 6.3498669 5.2910419"
   height="5.2910419mm"
   width="6.3498669mm">
  <defs
     id="defs4787" />
  <metadata
     id="metadata4790">
    <rdf:RDF>
      <cc:Work
         rdf:about="">
        <dc:format>image/svg+xml</dc:format>
        <dc:type
           rdf:resource="http://purl.org/dc/dcmitype/StillImage" />
        <dc:title></dc:title>
      </cc:Work>
    </rdf:RDF>
  </metadata>
  <g
     transform="translate(163.43686,-84.95567)"
     id="layer1">
    <path
       id="path1147"
       d="m -157.35152,85.222684 c -0.25337,0.179282 -0.5339,0.316389 -0.83079,0.406082 -0.3264,-0.376475 -0.85239,-0.508502 -1.31708,-0.330596 -0.46468,0.177932 -0.76922,0.627935 -0.76255,1.126833 v 0.265404 c -0.94439,0.02461 -1.83832,-0.426799 -2.38125,-1.20232 0,0 -1.05833,2.388712 1.32292,3.450352 -0.5449,0.371026 -1.19402,0.557081 -1.85209,0.530807 2.38125,1.327071 5.29167,0 5.29167,-3.052206 -2.4e-4,-0.07393 -0.007,-0.147691 -0.0212,-0.220293 0.27003,-0.267149 0.46059,-0.604414 0.55033,-0.974063 z"
       style="fill:none;stroke:#ffffff;stroke-width:0.52916664;stroke-linecap:round;stroke-linejoin:round;stroke-opacity:1" />
  </g>
</svg>
